<svg data-v-423bf9ae="" xmlns="http://www.w3.org/2000/svg" viewBox="0 0 176.42276769463191 60" class="font"><!----><!----><!----><g data-v-423bf9ae="" id="b1e1f243-d7c3-4a52-a5e6-f0db5a4766fe" fill="black" transform="matrix(4.065040587370328,0,0,4.065040587370328,-2.7642279542463655,-10.934958935792508)"><path d="M5.54 3.63L9.30 13.64L8.12 13.64L7.10 10.77L2.77 10.77L1.74 13.64L0.68 13.64L4.44 3.63L5.54 3.63ZM4.56 5.76L3.10 9.86L6.77 9.86L5.31 5.76L5.00 4.63L4.86 4.63L4.56 5.76ZM11.24 13.64L11.24 6.40L12.02 6.40L12.16 7.68L12.16 7.68Q12.40 7.44 12.70 7.18L12.70 7.18L12.70 7.18Q13.00 6.93 13.35 6.73L13.35 6.73L13.35 6.73Q13.70 6.52 14.10 6.39L14.10 6.39L14.10 6.39Q14.49 6.26 14.92 6.26L14.92 6.26L14.92 6.26Q15.42 6.26 15.83 6.44L15.83 6.44L15.83 6.44Q16.24 6.62 16.54 6.95L16.54 6.95L16.54 6.95Q16.84 7.27 17.01 7.74L17.01 7.74L17.01 7.74Q17.18 8.21 17.18 8.79L17.18 8.79L17.18 13.64L16.20 13.64L16.20 8.93L16.20 8.93Q16.20 8.50 16.08 8.18L16.08 8.18L16.08 8.18Q15.97 7.85 15.76 7.63L15.76 7.63L15.76 7.63Q15.55 7.41 15.26 7.30L15.26 7.30L15.26 7.30Q14.96 7.18 14.62 7.18L14.62 7.18L14.62 7.18Q14.01 7.18 13.41 7.52L13.41 7.52L13.41 7.52Q12.82 7.86 12.22 8.46L12.22 8.46L12.22 13.64L11.24 13.64ZM23.28 13.94L21.54 13.94L21.54 13.94Q21.33 14.03 21.10 14.17L21.10 14.17L21.10 14.17Q20.86 14.32 20.67 14.51L20.67 14.51L20.67 14.51Q20.47 14.70 20.34 14.92L20.34 14.92L20.34 14.92Q20.21 15.14 20.21 15.37L20.21 15.37L20.21 15.37Q20.21 15.61 20.35 15.83L20.35 15.83L20.35 15.83Q20.50 16.04 20.78 16.20L20.78 16.20L20.78 16.20Q21.05 16.37 21.45 16.46L21.45 16.46L21.45 16.46Q21.85 16.55 22.36 16.55L22.36 16.55L22.36 16.55Q22.93 16.55 23.40 16.43L23.40 16.43L23.40 16.43Q23.87 16.31 24.21 16.10L24.21 16.10L24.21 16.10Q24.54 15.89 24.73 15.61L24.73 15.61L24.73 15.61Q24.91 15.33 24.91 15.01L24.91 15.01L24.91 15.01Q24.91 14.74 24.78 14.53L24.78 14.53L24.78 14.53Q24.64 14.33 24.42 14.20L24.42 14.20L24.42 14.20Q24.20 14.07 23.91 14.00L23.91 14.00L23.91 14.00Q23.61 13.94 23.28 13.94L23.28 13.94ZM20.63 13.78L20.63 13.78L20.63 13.78Q20.45 13.73 20.28 13.62L20.28 13.62L20.28 13.62Q20.10 13.52 19.98 13.38L19.98 13.38L19.98 13.38Q19.85 13.24 19.78 13.07L19.78 13.07L19.78 13.07Q19.70 12.91 19.70 12.72L19.70 12.72L19.70 12.72Q19.70 12.50 19.81 12.30L19.81 12.30L19.81 12.30Q19.91 12.10 20.09 11.92L20.09 11.92L20.09 11.92Q20.26 11.73 20.48 11.57L20.48 11.57L20.48 11.57Q20.71 11.40 20.93 11.26L20.93 11.26L20.93 11.26Q20.29 10.91 19.90 10.33L19.90 10.33L19.90 10.33Q19.52 9.74 19.52 9.00L19.52 9.00L19.52 9.00Q19.52 8.35 19.80 7.84L19.80 7.84L19.80 7.84Q20.09 7.33 20.54 6.98L20.54 6.98L20.54 6.98Q20.98 6.63 21.51 6.45L21.51 6.45L21.51 6.45Q22.05 6.26 22.53 6.26L22.53 6.26L22.53 6.26Q22.74 6.26 22.95 6.29L22.95 6.29L22.95 6.29Q23.16 6.32 23.36 6.38L23.36 6.38L23.36 6.38Q23.56 6.43 23.73 6.51L23.73 6.51L23.73 6.51Q23.91 6.58 24.04 6.67L24.04 6.67L24.04 6.67Q24.15 6.60 24.33 6.55L24.33 6.55L24.33 6.55Q24.50 6.50 24.68 6.47L24.68 6.47L24.68 6.47Q24.86 6.43 25.04 6.42L25.04 6.42L25.04 6.42Q25.21 6.40 25.33 6.40L25.33 6.40L26.64 6.40L26.39 7.29L24.61 7.29L24.61 7.29Q24.74 7.40 24.86 7.57L24.86 7.57L24.86 7.57Q24.97 7.75 25.06 7.96L25.06 7.96L25.06 7.96Q25.16 8.18 25.21 8.42L25.21 8.42L25.21 8.42Q25.27 8.66 25.27 8.91L25.27 8.91L25.27 8.91Q25.27 9.48 25.00 9.97L25.00 9.97L25.00 9.97Q24.73 10.46 24.31 10.82L24.31 10.82L24.31 10.82Q23.88 11.18 23.36 11.39L23.36 11.39L23.36 11.39Q22.83 11.60 22.31 11.60L22.31 11.60L22.31 11.60Q22.15 11.60 21.97 11.58L21.97 11.58L21.97 11.58Q21.80 11.57 21.60 11.54L21.60 11.54L21.60 11.54Q21.46 11.62 21.30 11.72L21.30 11.72L21.30 11.72Q21.15 11.82 21.02 11.93L21.02 11.93L21.02 11.93Q20.90 12.04 20.82 12.16L20.82 12.16L20.82 12.16Q20.73 12.29 20.73 12.43L20.73 12.43L20.73 12.43Q20.73 12.54 20.79 12.65L20.79 12.65L20.79 12.65Q20.84 12.76 20.94 12.84L20.94 12.84L20.94 12.84Q21.04 12.93 21.19 12.99L21.19 12.99L21.19 12.99Q21.33 13.04 21.52 13.04L21.52 13.04L23.56 13.04L23.56 13.04Q24.08 13.04 24.51 13.18L24.51 13.18L24.51 13.18Q24.94 13.32 25.24 13.56L25.24 13.56L25.24 13.56Q25.55 13.80 25.71 14.13L25.71 14.13L25.71 14.13Q25.88 14.46 25.88 14.83L25.88 14.83L25.88 14.83Q25.88 15.29 25.61 15.76L25.61 15.76L25.61 15.76Q25.35 16.23 24.86 16.60L24.86 16.60L24.86 16.60Q24.37 16.98 23.68 17.21L23.68 17.21L23.68 17.21Q22.99 17.45 22.13 17.45L22.13 17.45L22.13 17.45Q21.50 17.45 20.96 17.31L20.96 17.31L20.96 17.31Q20.42 17.17 20.03 16.93L20.03 16.93L20.03 16.93Q19.63 16.69 19.41 16.36L19.41 16.36L19.41 16.36Q19.19 16.03 19.19 15.64L19.19 15.64L19.19 15.64Q19.19 15.31 19.34 15.02L19.34 15.02L19.34 15.02Q19.50 14.73 19.72 14.50L19.72 14.50L19.72 14.50Q19.94 14.26 20.19 14.08L20.19 14.08L20.19 14.08Q20.44 13.90 20.63 13.78ZM20.49 8.89L20.49 8.89L20.49 8.89Q20.49 9.28 20.64 9.61L20.64 9.61L20.64 9.61Q20.79 9.95 21.04 10.21L21.04 10.21L21.04 10.21Q21.30 10.46 21.65 10.61L21.65 10.61L21.65 10.61Q22.00 10.75 22.39 10.75L22.39 10.75L22.39 10.75Q22.76 10.75 23.11 10.62L23.11 10.62L23.11 10.62Q23.45 10.49 23.72 10.25L23.72 10.25L23.72 10.25Q23.98 10.01 24.14 9.68L24.14 9.68L24.14 9.68Q24.29 9.35 24.29 8.95L24.29 8.95L24.29 8.95Q24.29 8.56 24.14 8.22L24.14 8.22L24.14 8.22Q23.99 7.89 23.74 7.64L23.74 7.64L23.74 7.64Q23.48 7.40 23.13 7.25L23.13 7.25L23.13 7.25Q22.78 7.11 22.39 7.11L22.39 7.11L22.39 7.11Q22.01 7.11 21.67 7.24L21.67 7.24L21.67 7.24Q21.33 7.36 21.06 7.59L21.06 7.59L21.06 7.59Q20.80 7.83 20.64 8.16L20.64 8.16L20.64 8.16Q20.49 8.48 20.49 8.89ZM28.15 13.64L28.15 2.69L29.13 2.69L29.13 13.64L28.15 13.64ZM37.11 12.43L37.11 13.10L37.11 13.10Q36.88 13.25 36.58 13.38L36.58 13.38L36.58 13.38Q36.27 13.50 35.93 13.59L35.93 13.59L35.93 13.59Q35.59 13.69 35.25 13.73L35.25 13.73L35.25 13.73Q34.90 13.78 34.59 13.78L34.59 13.78L34.59 13.78Q33.94 13.78 33.33 13.55L33.33 13.55L33.33 13.55Q32.72 13.32 32.24 12.87L32.24 12.87L32.24 12.87Q31.77 12.41 31.48 11.72L31.48 11.72L31.48 11.72Q31.19 11.04 31.19 10.12L31.19 10.12L31.19 10.12Q31.19 9.22 31.47 8.50L31.47 8.50L31.47 8.50Q31.75 7.79 32.22 7.29L32.22 7.29L32.22 7.29Q32.69 6.79 33.29 6.53L33.29 6.53L33.29 6.53Q33.89 6.26 34.53 6.26L34.53 6.26L34.53 6.26Q35.10 6.26 35.62 6.47L35.62 6.47L35.62 6.47Q36.13 6.69 36.52 7.08L36.52 7.08L36.52 7.08Q36.91 7.47 37.14 8.04L37.14 8.04L37.14 8.04Q37.37 8.60 37.37 9.30L37.37 9.30L37.37 9.30Q37.37 9.45 37.36 9.68L37.36 9.68L37.36 9.68Q37.34 9.92 37.31 10.16L37.31 10.16L32.22 10.16L32.22 10.16Q32.22 10.75 32.42 11.24L32.42 11.24L32.42 11.24Q32.61 11.73 32.98 12.09L32.98 12.09L32.98 12.09Q33.35 12.46 33.89 12.66L33.89 12.66L33.89 12.66Q34.42 12.86 35.09 12.86L35.09 12.86L35.09 12.86Q35.26 12.86 35.50 12.84L35.50 12.84L35.50 12.84Q35.75 12.82 36.02 12.78L36.02 12.78L36.02 12.78Q36.29 12.73 36.58 12.65L36.58 12.65L36.58 12.65Q36.86 12.56 37.11 12.43L37.11 12.43ZM32.22 9.38L36.42 9.38L36.42 9.38Q36.42 8.83 36.24 8.41L36.24 8.41L36.24 8.41Q36.07 8.00 35.79 7.72L35.79 7.72L35.79 7.72Q35.51 7.44 35.15 7.30L35.15 7.30L35.15 7.30Q34.79 7.16 34.40 7.16L34.40 7.16L34.40 7.16Q33.93 7.16 33.53 7.35L33.53 7.35L33.53 7.35Q33.13 7.54 32.85 7.85L32.85 7.85L32.85 7.85Q32.56 8.17 32.40 8.57L32.40 8.57L32.40 8.57Q32.23 8.97 32.22 9.38L32.22 9.38ZM39.07 13.30L39.30 12.43L39.42 12.35L39.42 12.35Q39.68 12.50 39.96 12.60L39.96 12.60L39.96 12.60Q40.24 12.69 40.52 12.76L40.52 12.76L40.52 12.76Q40.79 12.82 41.05 12.85L41.05 12.85L41.05 12.85Q41.30 12.89 41.51 12.89L41.51 12.89L41.51 12.89Q41.87 12.89 42.17 12.80L42.17 12.80L42.17 12.80Q42.47 12.72 42.69 12.57L42.69 12.57L42.69 12.57Q42.91 12.41 43.03 12.20L43.03 12.20L43.03 12.20Q43.16 11.98 43.16 11.71L43.16 11.71L43.16 11.71Q43.16 11.39 42.99 11.18L42.99 11.18L42.99 11.18Q42.82 10.96 42.55 10.82L42.55 10.82L42.55 10.82Q42.27 10.67 41.92 10.56L41.92 10.56L41.92 10.56Q41.57 10.46 41.20 10.35L41.20 10.35L41.20 10.35Q40.84 10.24 40.49 10.10L40.49 10.10L40.49 10.10Q40.13 9.97 39.86 9.76L39.86 9.76L39.86 9.76Q39.59 9.56 39.42 9.26L39.42 9.26L39.42 9.26Q39.25 8.96 39.25 8.52L39.25 8.52L39.25 8.52Q39.25 8.06 39.45 7.65L39.45 7.65L39.45 7.65Q39.65 7.24 40.01 6.93L40.01 6.93L40.01 6.93Q40.37 6.62 40.86 6.44L40.86 6.44L40.86 6.44Q41.35 6.26 41.95 6.26L41.95 6.26L41.95 6.26Q42.12 6.26 42.34 6.28L42.34 6.28L42.34 6.28Q42.56 6.30 42.81 6.33L42.81 6.33L42.81 6.33Q43.05 6.36 43.32 6.42L43.32 6.42L43.32 6.42Q43.58 6.47 43.83 6.56L43.83 6.56L43.58 7.45L43.46 7.53L43.46 7.53Q43.28 7.45 43.06 7.38L43.06 7.38L43.06 7.38Q42.84 7.31 42.62 7.26L42.62 7.26L42.62 7.26Q42.39 7.21 42.16 7.18L42.16 7.18L42.16 7.18Q41.94 7.16 41.75 7.16L41.75 7.16L41.75 7.16Q41.40 7.16 41.11 7.24L41.11 7.24L41.11 7.24Q40.82 7.33 40.61 7.48L40.61 7.48L40.61 7.48Q40.40 7.64 40.28 7.85L40.28 7.85L40.28 7.85Q40.16 8.06 40.16 8.31L40.16 8.31L40.16 8.31Q40.16 8.62 40.33 8.83L40.33 8.83L40.33 8.83Q40.50 9.04 40.77 9.18L40.77 9.18L40.77 9.18Q41.05 9.33 41.40 9.44L41.40 9.44L41.40 9.44Q41.75 9.55 42.12 9.66L42.12 9.66L42.12 9.66Q42.49 9.78 42.84 9.92L42.84 9.92L42.84 9.92Q43.20 10.06 43.47 10.27L43.47 10.27L43.47 10.27Q43.75 10.49 43.92 10.79L43.92 10.79L43.92 10.79Q44.08 11.09 44.08 11.53L44.08 11.53L44.08 11.53Q44.08 12.04 43.86 12.46L43.86 12.46L43.86 12.46Q43.63 12.88 43.24 13.17L43.24 13.17L43.24 13.17Q42.85 13.46 42.35 13.62L42.35 13.62L42.35 13.62Q41.84 13.78 41.30 13.78L41.30 13.78L41.30 13.78Q40.82 13.78 40.23 13.66L40.23 13.66L40.23 13.66Q39.63 13.54 39.07 13.30L39.07 13.30Z"></path></g><!----><!----></svg>